<svg width="360" height="338" viewBox="0 0 360 338" fill="none" xmlns="http://www.w3.org/2000/svg">
<path d="M243.026 141.511L198.593 177.642C190.198 184.302 178.387 184.302 169.992 177.642L125.184 141.511" stroke="#4C5454" stroke-width="15" stroke-linecap="round" stroke-linejoin="round"/>
<path fill-rule="evenodd" clip-rule="evenodd" d="M233.089 263C263.502 263.084 284 238.095 284 207.384V138.7C284 107.988 263.502 83 233.089 83H134.911C104.498 83 84 107.988 84 138.7V207.384C84 238.095 104.498 263.084 134.911 263H233.089Z" stroke="#4C5454" stroke-width="15" stroke-linecap="round" stroke-linejoin="round"/>
<path d="M352.5 178C352.5 226.574 336.723 264.47 309.533 290.251C282.291 316.081 242.796 330.5 194 330.5C145.13 330.5 98.2957 316.024 63.8578 289.732C29.5671 263.552 7.5 225.664 7.5 178C7.5 81.947 87.2982 7.5 184 7.5C280.263 7.5 352.5 81.5143 352.5 178Z" fill="#FFCA3A" fill-opacity="0.1" stroke="#4C5454" stroke-width="15"/>
</svg>
